<?xml version="1.0" encoding="UTF-8" standalone="no"?>
<!DOCTYPE svg PUBLIC "-//W3C//DTD SVG 1.1//EN" "http://www.w3.org/Graphics/SVG/1.1/DTD/svg11.dtd">
<svg xmlns="http://www.w3.org/2000/svg" version="1.1" viewBox="0 0 720 405">
<g stroke-width="2.30" fill="none" stroke-linecap="butt">
<path stroke="#0e1d38" vector-effect="non-scaling-stroke" d="
  M 339.56 0.00
  Q 338.62 1.00 339.00 2.46"
/>
<path stroke="#1c1c35" vector-effect="non-scaling-stroke" d="
  M 339.00 2.46
  Q 338.44 14.95 338.69 37.06
  Q 338.98 62.66 339.29 88.25"
/>
<path stroke="#353a52" vector-effect="non-scaling-stroke" d="
  M 339.29 88.25
  L 338.71 122.00"
/>
<path stroke="#0c0a22" vector-effect="non-scaling-stroke" d="
  M 338.71 122.00
  L 337.36 141.31
  Q 337.31 142.00 336.96 141.45
  L 336.51 140.78
  A 0.42 0.36 53.6 0 0 335.94 140.65
  Q 334.70 141.74 333.26 142.53
  Q 330.59 144.00 329.43 146.78
  A 1.11 1.09 1.6 0 1 328.76 147.40
  Q 326.07 148.35 325.26 150.93
  Q 324.22 154.26 324.19 154.31
  Q 323.27 156.08 321.98 157.60
  Q 320.27 159.64 319.77 161.16
  A 4.99 4.94 79.2 0 1 318.25 163.42
  Q 315.17 166.03 313.43 168.25
  Q 313.00 168.81 311.26 172.66
  Q 310.03 175.37 307.54 177.68
  Q 306.99 178.18 305.88 179.81
  L 304.10 182.40
  Q 303.72 182.95 303.67 183.24
  Q 303.08 186.37 300.86 188.65
  A 1.47 1.37 72.6 0 0 300.46 189.49
  Q 300.17 191.64 298.25 193.50
  Q 295.64 196.03 291.95 201.87
  Q 291.07 203.27 289.93 204.57
  Q 288.81 205.85 287.74 207.18
  Q 286.60 208.61 284.31 210.89
  Q 282.07 213.12 280.44 215.82
  Q 279.07 218.07 277.40 219.66
  Q 275.34 221.61 273.56 223.81
  Q 272.91 224.62 270.00 226.75
  Q 269.22 227.32 268.89 228.78
  Q 268.81 229.15 268.62 228.82
  Q 267.98 227.71 267.98 229.26
  A 0.65 0.57 -9.8 0 1 267.51 229.84
  Q 266.37 230.19 266.19 231.69
  A 1.21 0.40 -16.9 0 1 265.31 232.31
  Q 262.98 233.15 261.82 235.41
  Q 261.38 236.29 260.02 237.16
  A 0.45 0.45 -18.1 0 0 259.82 237.55
  Q 259.84 238.39 259.20 238.79
  A 1.17 0.83 -18.4 0 0 258.69 239.49
  Q 258.22 242.62 256.16 245.07
  Q 256.08 245.17 256.04 245.04
  L 256.00 244.91
  Q 255.88 244.56 255.77 245.03
  Q 255.57 245.84 255.18 245.65
  A 0.57 0.40 27.7 0 0 254.54 245.73
  Q 249.40 253.61 249.00 255.50
  Q 247.95 260.43 244.06 265.44
  Q 236.33 275.41 232.56 279.87
  Q 232.26 280.22 229.81 282.46
  Q 228.37 283.78 227.49 285.57
  A 0.80 0.36 -2.2 0 1 226.92 285.85
  Q 226.63 285.89 226.66 286.43
  Q 226.86 289.77 222.23 294.14
  A 2.36 2.32 -19.6 0 0 221.51 295.62
  Q 221.39 297.03 220.94 296.31
  Q 220.71 298.76 218.83 301.14
  A 1.12 1.11 -74.3 0 1 218.11 301.55
  Q 216.53 301.74 215.12 303.12
  Q 213.13 305.07 211.56 307.34
  Q 211.44 307.52 208.82 311.11
  Q 207.05 313.53 205.31 317.31
  Q 203.70 320.81 196.78 331.33
  Q 196.51 331.73 196.06 331.97
  Q 193.64 333.25 192.19 335.50
  Q 191.76 336.17 190.48 337.75
  Q 189.57 338.89 189.25 340.39
  Q 189.20 340.62 189.02 340.42
  Q 188.75 340.14 188.56 340.76
  Q 188.51 340.94 188.54 341.25
  Q 188.62 342.06 188.03 342.39
  Q 187.54 342.67 187.33 343.00
  L 183.54 349.10
  A 1.41 0.90 -0.7 0 1 182.76 349.61
  Q 180.08 350.30 179.25 353.25
  Q 178.71 355.19 175.96 358.73
  Q 175.71 359.06 175.50 359.42
  Q 174.75 360.67 173.77 361.74
  Q 172.80 362.80 172.19 364.07
  Q 171.09 366.36 168.56 370.14
  Q 168.52 370.20 168.49 370.27
  Q 165.76 376.57 161.33 381.80
  Q 161.31 381.82 159.55 383.58
  Q 157.84 385.29 157.29 387.69
  Q 157.20 388.09 156.86 388.56
  L 150.75 397.07
  A 1.81 1.29 -74.8 0 1 150.03 397.66
  Q 148.57 398.23 149.65 398.81
  A 1.28 1.27 -61.8 0 1 150.17 400.54
  Q 147.92 404.78 151.69 405.00"
/>
<path stroke="#102f4c" vector-effect="non-scaling-stroke" d="
  M 375.56 0.00
  Q 375.87 1.89 372.52 5.58
  A 2.87 2.86 -30.3 0 0 371.85 8.12
  Q 371.95 8.60 370.68 9.93
  Q 366.78 13.99 364.30 19.08
  Q 363.61 20.50 362.13 21.05
  Q 360.06 21.82 359.01 23.81
  Q 357.82 26.03 357.79 26.08
  Q 355.62 29.45 355.25 30.75
  Q 354.79 32.36 354.11 33.15
  Q 353.73 33.59 353.59 33.98
  Q 352.61 36.70 350.02 37.87
  A 1.40 1.33 -0.8 0 0 349.35 38.52
  Q 347.43 42.53 344.08 45.36
  Q 343.76 45.64 343.19 45.77
  Q 341.17 46.24 340.68 48.77"
/>
<path stroke="#1e314d" vector-effect="non-scaling-stroke" d="
  M 340.68 48.77
  Q 340.49 31.62 340.22 14.50
  Q 340.12 8.43 339.00 2.46"
/>
<path stroke="#102a45" vector-effect="non-scaling-stroke" d="
  M 389.81 0.00
  Q 388.32 0.67 390.25 0.54
  A 0.29 0.28 10.6 0 1 390.54 0.94
  Q 387.06 8.19 382.38 14.68
  Q 379.45 18.72 378.30 20.46
  Q 375.11 25.29 374.31 26.31
  Q 371.98 29.29 370.49 31.76
  Q 368.05 35.81 366.90 37.29
  Q 358.11 48.59 350.35 60.63
  Q 347.57 64.96 342.69 67.69
  Q 341.80 68.18 341.54 67.55
  Q 341.41 67.24 341.24 67.52
  Q 340.88 68.13 340.63 66.47"
/>
<path stroke="#1e2e49" vector-effect="non-scaling-stroke" d="
  M 340.63 66.47
  L 340.68 48.77"
/>
<path stroke="#11243d" vector-effect="non-scaling-stroke" d="
  M 406.93 0.05
  Q 402.57 14.49 391.81 25.06
  Q 390.65 26.21 389.49 28.14
  Q 388.92 29.09 388.19 31.70
  Q 387.67 33.61 386.52 35.29
  Q 384.34 38.48 382.03 41.59
  Q 379.99 44.35 377.67 48.00
  Q 374.14 53.55 370.94 56.94
  Q 368.65 59.36 367.86 61.22
  Q 367.65 61.72 368.06 61.35
  Q 374.51 55.48 380.00 48.70
  Q 380.32 48.30 380.08 48.77
  Q 378.35 52.17 375.81 55.01
  Q 373.83 57.22 373.22 58.00
  Q 372.00 59.57 370.79 61.14
  Q 369.93 62.25 368.22 65.22
  Q 366.95 67.43 365.28 69.09
  Q 363.99 70.39 363.49 72.15
  Q 362.44 75.93 360.21 78.47
  Q 358.44 80.50 357.48 82.08
  Q 354.80 86.48 349.86 89.73
  A 1.56 1.55 -7.6 0 0 349.23 90.55
  Q 348.29 93.42 348.35 96.50
  Q 348.41 99.27 346.13 100.85
  Q 344.43 102.04 343.04 100.99
  Q 342.26 100.39 342.25 101.37
  Q 342.25 104.72 341.56 103.75
  Q 341.36 103.48 341.27 103.81
  L 340.54 106.50"
/>
<path stroke="#374a63" vector-effect="non-scaling-stroke" d="
  M 340.54 106.50
  L 340.21 88.00"
/>
<path stroke="#1e2c46" vector-effect="non-scaling-stroke" d="
  M 340.21 88.00
  L 340.63 66.47"
/>
<path stroke="#101c33" vector-effect="non-scaling-stroke" d="
  M 470.06 0.00
  L 473.76 0.25
  A 0.90 0.70 -3.9 0 1 474.53 0.77
  Q 476.75 8.40 472.09 13.18
  Q 471.08 14.22 468.98 15.22
  Q 467.28 16.03 465.63 16.94
  A 1.32 1.32 -4.5 0 0 465.02 17.65
  Q 462.28 24.92 454.92 33.69
  Q 454.61 34.05 454.50 34.51
  Q 453.20 39.61 449.40 42.92
  Q 447.21 44.82 446.39 46.30
  Q 445.19 48.46 444.25 50.75
  Q 443.10 53.55 438.92 57.57
  Q 437.65 58.79 436.35 61.03
  Q 434.54 64.17 431.50 65.75
  Q 428.24 67.45 428.61 70.69
  A 1.48 1.21 62.9 0 1 428.41 71.61
  Q 426.55 74.41 424.26 76.87
  Q 422.19 79.10 420.48 81.74
  Q 418.57 84.71 415.75 88.00
  Q 414.22 89.79 413.10 92.32
  Q 411.82 95.21 410.64 96.69
  Q 409.02 98.71 407.30 100.65
  Q 405.75 102.40 404.23 104.78
  Q 401.59 108.91 398.94 110.94
  Q 395.68 113.43 395.44 117.19
  Q 395.12 122.17 391.03 123.88
  A 1.87 1.61 2.9 0 0 390.27 124.47
  Q 387.02 128.93 385.50 129.75
  Q 383.71 130.72 381.44 133.94
  Q 377.84 139.03 376.11 142.40
  Q 375.21 144.17 373.78 145.67
  Q 372.37 147.16 371.24 148.87
  Q 369.41 151.61 367.80 153.32
  Q 365.46 155.79 364.31 157.81
  Q 362.66 160.71 361.68 162.33
  Q 361.63 162.41 359.91 166.02
  Q 359.04 167.85 357.19 169.69
  Q 355.29 171.57 354.05 175.02
  Q 353.27 177.18 352.19 178.50
  Q 350.92 180.06 349.57 181.57
  Q 348.46 182.82 347.85 181.29
  Q 347.68 180.87 347.42 181.23
  Q 346.27 182.84 344.22 182.38
  A 0.58 0.55 16.6 0 0 343.56 182.71
  Q 343.42 183.08 343.32 183.45
  Q 343.21 183.88 343.31 184.68
  Q 343.49 186.02 342.63 186.91
  A 0.94 0.82 -32.8 0 0 342.39 187.74
  Q 343.58 192.09 341.93 196.25"
/>
<path stroke="#718799" vector-effect="non-scaling-stroke" d="
  M 341.93 196.25
  L 341.46 186.50"
/>
<path stroke="#306f92" vector-effect="non-scaling-stroke" d="
  M 341.46 186.50
  L 340.96 159.50"
/>
<path stroke="#355c7a" vector-effect="non-scaling-stroke" d="
  M 340.96 159.50
  L 340.71 129.75"
/>
<path stroke="#37465e" vector-effect="non-scaling-stroke" d="
  M 340.71 129.75
  L 340.54 106.50"
/>
<path stroke="#0e132a" vector-effect="non-scaling-stroke" d="
  M 513.56 0.00
  Q 517.30 0.51 520.00 0.25
  Q 522.16 0.04 523.86 0.78
  Q 524.18 0.92 523.86 1.09
  Q 523.08 1.52 524.26 1.67
  Q 525.08 1.78 525.84 2.20
  A 0.54 0.50 30.2 0 1 526.05 2.91
  L 524.09 6.16
  A 1.45 1.21 -38.1 0 0 523.90 7.05
  Q 524.55 10.93 521.75 14.00
  Q 515.42 20.94 510.45 30.00
  Q 509.85 31.10 510.94 31.10
  Q 511.35 31.10 511.00 31.30
  Q 506.06 34.13 504.67 39.74
  Q 504.46 40.59 503.96 41.07
  Q 503.39 41.62 502.73 42.05
  A 1.25 1.21 80.3 0 0 502.21 42.81
  Q 501.49 46.05 499.06 47.56
  Q 495.61 49.71 493.86 52.60
  Q 492.55 54.77 492.52 54.82
  Q 489.80 58.84 489.31 60.06
  Q 488.46 62.21 485.31 65.31
  Q 483.40 67.20 480.96 72.31
  A 1.95 1.57 -9.5 0 1 480.33 73.02
  Q 478.23 74.42 477.06 76.57
  Q 475.23 79.94 474.79 80.52
  Q 471.98 84.19 469.13 87.83
  Q 468.33 88.86 467.85 88.48
  A 0.37 0.30 34.5 0 0 467.33 88.52
  Q 464.46 94.11 459.94 99.94
  Q 456.43 104.47 454.12 110.47
  A 1.86 1.83 -9.0 0 1 453.55 111.24
  Q 449.75 114.23 447.20 118.29
  Q 446.43 119.52 445.08 121.07
  Q 443.90 122.41 443.09 124.00
  Q 441.71 126.71 440.64 127.97
  Q 438.84 130.09 437.15 132.29
  Q 436.74 132.82 434.96 136.09
  Q 433.88 138.07 432.00 139.50
  Q 431.15 140.15 429.81 143.41
  Q 428.93 145.56 427.71 147.34
  Q 424.54 151.97 421.92 156.95
  Q 421.09 158.53 419.39 159.96
  Q 415.79 162.99 413.19 168.19
  Q 411.36 171.85 407.64 175.75
  Q 405.77 177.72 403.84 180.59
  Q 401.75 183.70 398.94 186.23
  A 0.49 0.42 48.5 0 0 398.95 186.88
  Q 399.38 187.36 398.74 187.82
  Q 398.27 188.15 398.09 188.52
  Q 395.18 194.38 391.75 198.50
  Q 389.75 200.90 388.28 203.07
  Q 386.77 205.28 384.80 207.60
  Q 381.55 211.40 379.59 216.02
  Q 379.57 216.07 378.62 219.05
  Q 377.57 222.35 374.50 225.50
  Q 370.08 230.03 361.36 242.59
  Q 358.80 246.28 357.12 248.42
  Q 353.54 253.00 352.31 253.81
  Q 348.03 256.64 344.77 260.54
  Q 343.24 262.38 342.77 264.93
  Q 341.55 271.66 341.29 278.50"
/>
<path stroke="#142f4d" vector-effect="non-scaling-stroke" d="
  M 341.29 278.50
  L 340.79 255.25"
/>
<path stroke="#10486d" vector-effect="non-scaling-stroke" d="
  M 340.79 255.25
  Q 340.44 238.99 341.21 222.75"
/>
<path stroke="#55778f" vector-effect="non-scaling-stroke" d="
  M 341.21 222.75
  L 341.96 208.50"
/>
<path stroke="#708294" vector-effect="non-scaling-stroke" d="
  M 341.96 208.50
  L 341.93 196.25"
/>
<path stroke="#0d0b23" vector-effect="non-scaling-stroke" d="
  M 555.81 0.00
  Q 558.05 1.34 556.25 3.50
  Q 555.75 4.10 555.13 6.30
  Q 555.02 6.67 554.00 9.05
  Q 553.24 10.80 553.78 12.72
  Q 553.93 13.23 553.96 12.68
  Q 554.08 10.07 554.64 12.30
  Q 554.78 12.86 554.97 12.35
  L 555.22 11.71
  A 0.23 0.23 -60.3 0 1 555.58 11.61
  Q 556.02 11.99 556.06 11.06
  Q 556.12 9.90 556.52 10.52
  A 0.41 0.36 -26.2 0 0 556.99 10.65
  L 559.56 9.69
  Q 562.57 8.56 562.75 7.50
  Q 563.04 5.76 563.46 7.28
  A 0.51 0.47 78.1 0 0 563.98 7.65
  Q 566.20 7.41 568.03 6.03
  Q 570.29 4.33 569.84 7.25
  A 1.89 1.41 -27.0 0 1 569.41 8.12
  Q 568.21 9.45 567.51 11.05
  Q 566.61 13.11 565.91 14.08
  Q 563.21 17.84 560.07 23.30
  A 2.52 2.50 8.6 0 1 558.44 24.49
  Q 557.69 24.66 557.69 25.50
  A 1.71 0.90 75.2 0 1 557.48 26.41
  Q 555.65 29.22 553.70 31.95
  Q 552.78 33.24 551.55 35.65
  Q 550.57 37.58 549.24 39.30
  Q 548.98 39.64 548.48 39.88
  Q 546.58 40.82 546.50 43.00
  A 0.76 0.75 80.4 0 1 546.03 43.67
  Q 542.33 45.15 541.67 49.78
  Q 541.44 51.43 540.03 52.32
  Q 538.92 53.02 538.61 54.01
  A 1.68 1.06 -89.0 0 1 538.10 54.79
  Q 535.48 56.77 533.99 59.74
  Q 532.50 62.71 530.94 64.19
  Q 528.46 66.54 528.00 69.44
  A 1.72 1.15 81.2 0 1 527.60 70.30
  L 520.37 77.42
  Q 520.02 77.76 519.83 78.22
  Q 519.31 79.42 518.00 81.00
  Q 515.28 84.28 514.50 89.25
  Q 514.06 92.04 510.71 93.55
  A 1.51 1.01 -8.6 0 0 510.01 94.19
  L 508.66 97.28
  Q 508.43 97.80 508.10 98.05
  Q 504.59 100.67 503.94 101.94
  Q 501.21 107.22 497.36 111.72
  Q 496.24 113.03 495.39 115.21
  Q 494.56 117.34 493.08 119.12
  A 1.78 1.31 4.7 0 1 492.27 119.62
  Q 490.21 120.21 489.30 122.16
  Q 488.85 123.13 488.31 124.07
  Q 488.07 124.48 487.44 126.04
  Q 486.82 127.55 485.37 128.44
  A 1.58 1.31 -9.1 0 0 484.76 129.14
  Q 483.75 131.62 482.17 133.73
  Q 481.58 134.51 480.49 136.34
  Q 479.67 137.71 478.46 138.73
  Q 475.92 140.88 475.39 141.65
  Q 473.52 144.38 472.47 147.58
  A 1.74 1.06 -19.1 0 1 471.87 148.31
  Q 471.06 148.90 470.69 150.19
  Q 470.47 150.94 469.55 151.21
  A 1.03 0.87 -1.5 0 0 468.90 151.79
  Q 467.85 154.78 466.19 155.94
  Q 464.77 156.92 464.15 157.99
  Q 463.13 159.76 463.06 159.84
  Q 461.40 161.95 460.12 164.30
  Q 458.45 167.34 457.43 168.87
  Q 455.08 172.35 453.03 176.01
  Q 452.34 177.25 451.18 178.00
  Q 450.77 178.26 450.51 178.69
  L 446.09 185.91
  A 1.28 1.22 -35.5 0 0 445.92 186.80
  Q 446.56 190.19 443.51 191.62
  A 1.34 1.20 -3.9 0 0 442.87 192.28
  Q 442.02 194.33 441.19 196.40
  Q 440.74 197.53 439.89 198.33
  Q 439.02 199.14 438.13 199.92
  A 1.77 1.35 83.6 0 0 437.64 200.74
  Q 437.03 202.92 434.81 203.06
  A 0.79 0.59 -87.7 0 0 434.25 203.75
  Q 434.07 205.33 433.31 206.62
  Q 433.02 207.13 431.22 208.65
  Q 429.20 210.35 428.96 213.20
  A 1.51 1.05 -29.5 0 1 428.57 214.01
  L 423.55 219.36
  A 1.69 0.65 -88.4 0 0 423.18 220.25
  Q 422.80 222.18 420.92 222.71
  A 1.10 1.05 4.5 0 0 420.23 223.27
  Q 419.41 224.93 417.19 227.54
  Q 416.82 227.98 416.52 228.47
  Q 413.60 233.30 409.21 236.76
  A 1.54 1.50 80.0 0 0 408.68 237.54
  Q 407.93 240.06 406.24 241.96
  Q 404.17 244.27 403.70 244.92
  Q 402.54 246.51 401.22 247.97
  Q 400.51 248.76 400.24 249.76
  Q 399.97 250.77 399.65 251.78
  A 1.57 1.28 -13.3 0 1 399.08 252.52
  Q 397.47 253.65 396.63 255.48
  A 0.94 0.82 6.3 0 1 395.93 255.97
  Q 394.64 256.15 394.05 257.18
  Q 393.05 258.95 393.02 259.00
  Q 391.62 260.81 390.85 262.97
  A 1.07 0.94 -1.2 0 1 390.20 263.57
  Q 388.80 264.02 388.31 265.06
  Q 386.86 268.20 385.75 269.50
  Q 384.79 270.62 384.08 271.89
  Q 383.32 273.25 382.37 274.17
  Q 378.45 277.99 376.34 283.01
  Q 375.32 285.42 374.00 287.11
  Q 372.53 289.01 371.18 290.99
  Q 371.10 291.10 369.65 292.86
  Q 368.75 293.94 368.41 295.32
  A 1.52 1.26 -16.3 0 1 367.89 296.09
  Q 366.97 296.81 366.50 298.25
  Q 366.14 299.35 365.06 299.93
  Q 363.70 300.65 363.33 301.10
  Q 361.98 302.72 361.38 304.76
  A 1.49 1.41 81.1 0 1 360.84 305.54
  Q 356.90 308.44 354.29 312.62
  Q 353.16 314.43 351.69 315.93
  A 1.27 0.41 -7.3 0 1 351.01 316.25
  L 348.51 316.91
  A 0.31 0.27 -13.4 0 1 348.14 316.71
  Q 347.83 315.29 347.71 316.68
  A 0.89 0.61 77.2 0 1 347.53 317.13
  L 345.72 319.03
  Q 345.48 319.28 345.36 319.43
  Q 344.55 320.51 343.67 321.76
  Q 343.51 321.99 343.45 322.29
  Q 343.25 323.34 342.94 322.67
  Q 342.77 322.29 342.73 322.68
  L 342.04 328.75"
/>
<path stroke="#0f1932" vector-effect="non-scaling-stroke" d="
  M 342.04 328.75
  L 341.54 311.25"
/>
<path stroke="#132b49" vector-effect="non-scaling-stroke" d="
  M 341.54 311.25
  L 341.29 278.50"
/>
<path stroke="#0e1932" vector-effect="non-scaling-stroke" d="
  M 340.94 405.00
  Q 343.21 405.23 343.19 403.56
  Q 342.93 385.46 342.96 380.75"
/>
<path stroke="#0f162e" vector-effect="non-scaling-stroke" d="
  M 342.96 380.75
  Q 343.35 354.73 342.04 328.75"
/>
<path stroke="#454e67" vector-effect="non-scaling-stroke" d="
  M 340.21 88.00
  L 339.29 88.25"
/>
<path stroke="#5b82a0" vector-effect="non-scaling-stroke" d="
  M 340.71 129.75
  Q 339.88 129.04 338.79 129.00"
/>
<path stroke="#353c54" vector-effect="non-scaling-stroke" d="
  M 338.79 129.00
  L 338.71 122.00"
/>
<path stroke="#325270" vector-effect="non-scaling-stroke" d="
  M 338.79 129.00
  L 338.79 159.25"
/>
<path stroke="#2d6588" vector-effect="non-scaling-stroke" d="
  M 338.79 159.25
  L 338.96 180.50"
/>
<path stroke="#0d0f27" vector-effect="non-scaling-stroke" d="
  M 338.96 180.50
  Q 338.59 181.84 338.69 183.25
  Q 338.97 187.41 337.71 184.73
  Q 337.50 184.27 337.55 183.73
  Q 337.83 180.90 337.92 178.07
  Q 337.94 177.63 337.86 178.06
  Q 337.47 180.34 336.66 177.98
  Q 336.52 177.58 336.29 177.96
  Q 335.70 178.95 334.06 179.31
  Q 331.23 179.93 330.30 183.51
  Q 329.39 186.99 326.47 189.04
  A 1.22 1.18 78.3 0 0 325.98 189.81
  Q 325.51 192.49 323.97 194.60
  Q 321.41 198.09 321.37 198.14
  Q 317.04 205.50 313.06 213.06
  Q 311.30 216.42 307.76 219.80
  Q 305.68 221.78 304.63 223.51
  Q 303.13 225.98 302.31 227.81
  Q 301.20 230.29 299.62 232.10
  Q 296.63 235.49 296.38 235.85
  Q 289.64 245.37 282.23 254.36
  Q 281.83 254.84 279.77 258.01
  Q 278.55 259.89 276.71 261.27
  A 1.56 1.40 81.7 0 0 276.19 262.05
  Q 275.77 263.46 274.87 264.56
  Q 273.44 266.27 273.03 267.17
  Q 271.45 270.60 270.00 272.50
  Q 266.37 277.27 263.09 282.27
  Q 262.15 283.71 259.38 286.79
  Q 257.24 289.16 255.96 292.13
  Q 255.19 293.90 253.95 295.53
  Q 252.74 297.14 251.89 298.98
  A 1.33 1.22 -1.0 0 1 251.22 299.62
  Q 247.92 301.00 246.89 304.58
  Q 246.11 307.28 242.94 310.44
  Q 241.45 311.92 237.46 318.04
  Q 237.44 318.07 235.63 321.80
  Q 234.67 323.78 232.74 325.05
  A 1.52 1.37 85.7 0 0 232.17 325.79
  Q 231.54 327.57 229.34 329.05
  A 3.56 3.52 85.5 0 0 228.06 330.57
  Q 227.29 332.31 225.74 333.31
  A 1.53 1.43 -7.5 0 0 225.15 334.03
  Q 224.69 335.24 223.88 336.16
  Q 222.69 337.51 222.38 338.06
  Q 221.18 340.14 220.11 342.29
  A 0.43 0.36 10.2 0 1 219.76 342.49
  L 219.53 342.49
  A 0.55 0.47 -89.3 0 0 219.07 343.02
  Q 218.99 344.92 217.23 345.60
  A 1.14 1.05 -1.6 0 0 216.59 346.22
  Q 215.95 347.85 214.00 350.75
  Q 213.66 351.26 212.63 353.73
  Q 212.05 355.10 210.83 356.39
  Q 208.51 358.85 206.00 363.00
  Q 205.21 364.31 200.91 369.95
  Q 200.44 370.56 200.27 371.32
  Q 200.11 372.07 199.93 372.82
  A 0.93 0.77 -5.1 0 1 199.32 373.42
  Q 198.31 373.75 197.86 374.83
  Q 196.73 377.57 194.79 379.65
  Q 192.21 382.43 191.13 383.73
  Q 189.19 386.09 186.27 388.39
  Q 184.84 389.51 184.46 391.29
  Q 184.30 392.03 183.49 392.51
  Q 182.65 392.99 182.33 393.39
  Q 180.19 396.08 178.94 399.27
  Q 178.40 400.66 177.79 401.59
  Q 177.07 402.68 176.34 403.77
  A 0.32 0.31 -68.8 0 0 176.55 404.26
  Q 182.24 405.03 188.00 404.75
  Q 191.86 404.56 195.69 405.00"
/>
<path stroke="#53abd4" vector-effect="non-scaling-stroke" d="
  M 340.96 159.50
  Q 340.20 158.33 338.79 159.25"
/>
<path stroke="#8fd5f3" vector-effect="non-scaling-stroke" d="
  M 341.46 186.50
  L 339.04 186.75"
/>
<path stroke="#2e688b" vector-effect="non-scaling-stroke" d="
  M 339.04 186.75
  L 338.96 180.50"
/>
<path stroke="#6f8091" vector-effect="non-scaling-stroke" d="
  M 339.04 186.75
  L 338.71 199.75"
/>
<path stroke="#0e152c" vector-effect="non-scaling-stroke" d="
  M 338.71 199.75
  Q 338.38 199.02 337.69 199.19
  Q 337.27 199.28 336.25 199.25
  Q 333.91 199.17 332.44 200.55
  Q 331.32 201.61 330.92 203.91
  Q 330.08 208.84 331.27 213.84
  A 1.73 1.73 49.9 0 1 331.18 214.91
  Q 329.61 218.72 327.89 221.90
  Q 326.52 224.44 325.80 227.29
  Q 323.62 235.87 318.71 243.26
  Q 317.52 245.05 316.46 246.84
  Q 315.37 248.68 314.15 250.42
  Q 313.49 251.36 311.34 253.03
  Q 309.15 254.72 308.33 257.57
  Q 307.45 260.65 305.42 262.97
  Q 304.04 264.55 303.08 266.33
  Q 302.08 268.19 300.61 269.69
  Q 298.49 271.84 297.84 272.73
  Q 293.68 278.43 292.94 279.69
  Q 288.35 287.48 285.75 290.50
  Q 284.33 292.15 281.50 296.72
  Q 280.96 297.58 278.97 299.83
  Q 277.70 301.27 276.75 303.25
  Q 276.08 304.66 274.79 306.59
  Q 274.47 307.08 272.16 309.37
  Q 270.41 311.12 269.44 314.19
  Q 268.93 315.79 266.71 316.80
  A 1.61 1.41 -1.3 0 0 266.01 317.44
  Q 261.54 325.66 255.57 332.84
  Q 253.80 334.97 251.85 337.97
  Q 250.12 340.62 248.06 343.06
  Q 247.59 343.62 247.40 344.33
  Q 247.26 344.86 246.97 345.19
  Q 243.97 348.56 242.64 352.89
  Q 241.89 355.32 239.75 357.50
  Q 237.52 359.77 230.76 367.76
  Q 228.11 370.88 226.23 374.51
  Q 225.99 374.98 225.26 377.62
  Q 224.73 379.59 223.01 380.28
  Q 220.91 381.13 219.99 383.20
  Q 218.06 387.55 215.31 388.34
  Q 213.42 388.88 213.55 390.85
  Q 213.80 394.86 210.74 396.81
  A 1.55 1.52 -6.1 0 0 210.14 397.54
  Q 209.46 399.31 208.12 400.65
  A 1.35 0.70 -34.9 0 0 207.68 401.49
  L 207.72 403.70
  A 0.70 0.47 5.6 0 0 208.31 404.19
  L 213.44 405.00"
/>
<path stroke="#b5e2f5" vector-effect="non-scaling-stroke" d="
  M 341.96 208.50
  Q 340.54 210.12 338.79 208.75"
/>
<path stroke="#708294" vector-effect="non-scaling-stroke" d="
  M 338.79 208.75
  L 338.71 199.75"
/>
<path stroke="#55778f" vector-effect="non-scaling-stroke" d="
  M 338.79 208.75
  L 339.21 218.00"
/>
<path stroke="#101a32" vector-effect="non-scaling-stroke" d="
  M 339.21 218.00
  Q 338.69 238.80 339.00 247.50
  Q 339.03 248.44 338.73 248.82
  A 1.11 0.26 -48.6 0 0 338.33 249.56
  Q 338.44 253.56 338.69 257.56
  Q 338.72 258.18 337.78 260.23
  Q 337.57 260.67 337.44 260.21
  Q 336.36 256.53 333.38 258.93
  A 1.33 0.99 79.6 0 0 332.97 259.76
  Q 332.81 261.17 331.85 262.16
  Q 330.48 263.57 330.45 263.62
  Q 325.01 270.79 320.29 278.45
  Q 319.22 280.20 317.17 282.61
  Q 315.46 284.61 314.11 286.87
  Q 310.86 292.28 309.99 293.43
  Q 306.94 297.46 303.74 301.36
  Q 301.64 303.91 300.00 306.33
  Q 298.25 308.89 296.50 311.46
  Q 296.46 311.52 293.76 315.74
  Q 291.98 318.52 289.80 320.97
  Q 288.38 322.57 287.33 324.50
  Q 286.28 326.42 285.01 328.19
  Q 282.59 331.57 281.40 333.57
  Q 279.11 337.40 276.38 340.90
  Q 272.80 345.51 271.13 348.03
  Q 262.60 360.92 253.03 373.06
  Q 249.20 377.91 245.06 385.56
  Q 244.03 387.48 242.01 389.50
  Q 240.21 391.31 238.98 393.35
  Q 236.19 398.00 232.12 401.67
  A 0.44 0.43 51.6 0 1 231.47 401.58
  Q 229.27 398.46 229.48 403.75
  A 0.63 0.57 4.9 0 0 230.00 404.31
  Q 230.85 404.47 231.44 405.00"
/>
<path stroke="#55a8ce" vector-effect="non-scaling-stroke" d="
  M 341.21 222.75
  Q 340.28 222.97 340.35 223.95
  Q 340.39 224.44 340.05 224.12
  Q 339.55 223.65 339.29 223.00"
/>
<path stroke="#567a93" vector-effect="non-scaling-stroke" d="
  M 339.29 223.00
  L 339.21 218.00"
/>
<path stroke="#114b71" vector-effect="non-scaling-stroke" d="
  M 339.29 223.00
  L 339.29 268.00"
/>
<path stroke="#153251" vector-effect="non-scaling-stroke" d="
  M 339.29 268.00
  L 339.79 312.75"
/>
<path stroke="#112139" vector-effect="non-scaling-stroke" d="
  M 339.79 312.75
  Q 339.34 325.62 338.75 338.49
  Q 338.71 339.38 338.69 338.15
  Q 338.69 337.91 338.67 338.15
  Q 338.58 339.71 337.96 338.97
  Q 337.58 338.51 337.22 338.36
  Q 332.20 336.31 330.28 340.66
  Q 328.84 343.92 328.76 344.06
  Q 327.87 345.72 327.09 347.43
  Q 325.57 350.77 324.20 352.16
  Q 322.09 354.29 319.28 355.56
  Q 316.89 356.65 314.75 360.00
  Q 311.74 364.71 309.05 369.60
  Q 308.49 370.62 306.91 372.45
  Q 305.60 373.99 305.19 375.69
  Q 304.29 379.43 301.48 381.30
  A 1.29 0.54 -84.8 0 0 301.07 382.07
  Q 300.98 382.46 300.50 382.50
  Q 295.71 386.96 295.12 392.36
  Q 294.89 394.47 294.36 396.54
  Q 293.40 400.22 290.51 400.54
  Q 290.46 400.55 287.53 400.14
  Q 284.33 399.68 283.97 403.19
  A 1.13 0.89 -18.9 0 1 283.49 403.93
  Q 282.67 404.51 284.19 405.00"
/>
<path stroke="#14608c" vector-effect="non-scaling-stroke" d="
  M 340.79 255.25
  Q 340.90 264.96 340.44 267.44
  Q 340.04 269.54 339.29 268.00"
/>
<path stroke="#153655" vector-effect="non-scaling-stroke" d="
  M 341.54 311.25
  Q 341.39 313.04 339.79 312.75"
/>
<path stroke="#112741" vector-effect="non-scaling-stroke" d="
  M 342.96 380.75
  L 342.25 375.50
  Q 341.91 372.95 340.81 375.06
  Q 335.23 385.87 328.25 395.84
  Q 328.19 395.92 326.80 397.73
  Q 325.10 399.92 325.06 401.81
  Q 325.03 403.39 324.18 404.01
  Q 323.77 404.32 324.20 404.47
  L 325.69 405.00"
/>
</g>
<path fill="#0c081f" d="
  M 0.00 0.00
  L 339.56 0.00
  Q 338.62 1.00 339.00 2.46
  Q 338.44 14.95 338.69 37.06
  Q 338.98 62.66 339.29 88.25
  L 338.71 122.00
  L 337.36 141.31
  Q 337.31 142.00 336.96 141.45
  L 336.51 140.78
  A 0.42 0.36 53.6 0 0 335.94 140.65
  Q 334.70 141.74 333.26 142.53
  Q 330.59 144.00 329.43 146.78
  A 1.11 1.09 1.6 0 1 328.76 147.40
  Q 326.07 148.35 325.26 150.93
  Q 324.22 154.26 324.19 154.31
  Q 323.27 156.08 321.98 157.60
  Q 320.27 159.64 319.77 161.16
  A 4.99 4.94 79.2 0 1 318.25 163.42
  Q 315.17 166.03 313.43 168.25
  Q 313.00 168.81 311.26 172.66
  Q 310.03 175.37 307.54 177.68
  Q 306.99 178.18 305.88 179.81
  L 304.10 182.40
  Q 303.72 182.95 303.67 183.24
  Q 303.08 186.37 300.86 188.65
  A 1.47 1.37 72.6 0 0 300.46 189.49
  Q 300.17 191.64 298.25 193.50
  Q 295.64 196.03 291.95 201.87
  Q 291.07 203.27 289.93 204.57
  Q 288.81 205.85 287.74 207.18
  Q 286.60 208.61 284.31 210.89
  Q 282.07 213.12 280.44 215.82
  Q 279.07 218.07 277.40 219.66
  Q 275.34 221.61 273.56 223.81
  Q 272.91 224.62 270.00 226.75
  Q 269.22 227.32 268.89 228.78
  Q 268.81 229.15 268.62 228.82
  Q 267.98 227.71 267.98 229.26
  A 0.65 0.57 -9.8 0 1 267.51 229.84
  Q 266.37 230.19 266.19 231.69
  A 1.21 0.40 -16.9 0 1 265.31 232.31
  Q 262.98 233.15 261.82 235.41
  Q 261.38 236.29 260.02 237.16
  A 0.45 0.45 -18.1 0 0 259.82 237.55
  Q 259.84 238.39 259.20 238.79
  A 1.17 0.83 -18.4 0 0 258.69 239.49
  Q 258.22 242.62 256.16 245.07
  Q 256.08 245.17 256.04 245.04
  L 256.00 244.91
  Q 255.88 244.56 255.77 245.03
  Q 255.57 245.84 255.18 245.65
  A 0.57 0.40 27.7 0 0 254.54 245.73
  Q 249.40 253.61 249.00 255.50
  Q 247.95 260.43 244.06 265.44
  Q 236.33 275.41 232.56 279.87
  Q 232.26 280.22 229.81 282.46
  Q 228.37 283.78 227.49 285.57
  A 0.80 0.36 -2.2 0 1 226.92 285.85
  Q 226.63 285.89 226.66 286.43
  Q 226.86 289.77 222.23 294.14
  A 2.36 2.32 -19.6 0 0 221.51 295.62
  Q 221.39 297.03 220.94 296.31
  Q 220.71 298.76 218.83 301.14
  A 1.12 1.11 -74.3 0 1 218.11 301.55
  Q 216.53 301.74 215.12 303.12
  Q 213.13 305.07 211.56 307.34
  Q 211.44 307.52 208.82 311.11
  Q 207.05 313.53 205.31 317.31
  Q 203.70 320.81 196.78 331.33
  Q 196.51 331.73 196.06 331.97
  Q 193.64 333.25 192.19 335.50
  Q 191.76 336.17 190.48 337.75
  Q 189.57 338.89 189.25 340.39
  Q 189.20 340.62 189.02 340.42
  Q 188.75 340.14 188.56 340.76
  Q 188.51 340.94 188.54 341.25
  Q 188.62 342.06 188.03 342.39
  Q 187.54 342.67 187.33 343.00
  L 183.54 349.10
  A 1.41 0.90 -0.7 0 1 182.76 349.61
  Q 180.08 350.30 179.25 353.25
  Q 178.71 355.19 175.96 358.73
  Q 175.71 359.06 175.50 359.42
  Q 174.75 360.67 173.77 361.74
  Q 172.80 362.80 172.19 364.07
  Q 171.09 366.36 168.56 370.14
  Q 168.52 370.20 168.49 370.27
  Q 165.76 376.57 161.33 381.80
  Q 161.31 381.82 159.55 383.58
  Q 157.84 385.29 157.29 387.69
  Q 157.20 388.09 156.86 388.56
  L 150.75 397.07
  A 1.81 1.29 -74.8 0 1 150.03 397.66
  Q 148.57 398.23 149.65 398.81
  A 1.28 1.27 -61.8 0 1 150.17 400.54
  Q 147.92 404.78 151.69 405.00
  L 0.00 405.00
  L 0.00 0.00
  Z"
/>
<path fill="#0f3250" d="
  M 339.56 0.00
  L 375.56 0.00
  Q 375.87 1.89 372.52 5.58
  A 2.87 2.86 -30.3 0 0 371.85 8.12
  Q 371.95 8.60 370.68 9.93
  Q 366.78 13.99 364.30 19.08
  Q 363.61 20.50 362.13 21.05
  Q 360.06 21.82 359.01 23.81
  Q 357.82 26.03 357.79 26.08
  Q 355.62 29.45 355.25 30.75
  Q 354.79 32.36 354.11 33.15
  Q 353.73 33.59 353.59 33.98
  Q 352.61 36.70 350.02 37.87
  A 1.40 1.33 -0.8 0 0 349.35 38.52
  Q 347.43 42.53 344.08 45.36
  Q 343.76 45.64 343.19 45.77
  Q 341.17 46.24 340.68 48.77
  Q 340.49 31.62 340.22 14.50
  Q 340.12 8.43 339.00 2.46
  Q 338.62 1.00 339.56 0.00
  Z"
/>
<path fill="#102c48" d="
  M 375.56 0.00
  L 389.81 0.00
  Q 388.32 0.67 390.25 0.54
  A 0.29 0.28 10.6 0 1 390.54 0.94
  Q 387.06 8.19 382.38 14.68
  Q 379.45 18.72 378.30 20.46
  Q 375.11 25.29 374.31 26.31
  Q 371.98 29.29 370.49 31.76
  Q 368.05 35.81 366.90 37.29
  Q 358.11 48.59 350.35 60.63
  Q 347.57 64.96 342.69 67.69
  Q 341.80 68.18 341.54 67.55
  Q 341.41 67.24 341.24 67.52
  Q 340.88 68.13 340.63 66.47
  L 340.68 48.77
  Q 341.17 46.24 343.19 45.77
  Q 343.76 45.64 344.08 45.36
  Q 347.43 42.53 349.35 38.52
  A 1.40 1.33 -0.8 0 1 350.02 37.87
  Q 352.61 36.70 353.59 33.98
  Q 353.73 33.59 354.11 33.15
  Q 354.79 32.36 355.25 30.75
  Q 355.62 29.45 357.79 26.08
  Q 357.82 26.03 359.01 23.81
  Q 360.06 21.82 362.13 21.05
  Q 363.61 20.50 364.30 19.08
  Q 366.78 13.99 370.68 9.93
  Q 371.95 8.60 371.85 8.12
  A 2.87 2.86 -30.3 0 1 372.52 5.58
  Q 375.87 1.89 375.56 0.00
  Z"
/>
<path fill="#102842" d="
  M 389.81 0.00
  L 406.93 0.05
  Q 402.57 14.49 391.81 25.06
  Q 390.65 26.21 389.49 28.14
  Q 388.92 29.09 388.19 31.70
  Q 387.67 33.61 386.52 35.29
  Q 384.34 38.48 382.03 41.59
  Q 379.99 44.35 377.67 48.00
  Q 374.14 53.55 370.94 56.94
  Q 368.65 59.36 367.86 61.22
  Q 367.65 61.72 368.06 61.35
  Q 374.51 55.48 380.00 48.70
  Q 380.32 48.30 380.08 48.77
  Q 378.35 52.17 375.81 55.01
  Q 373.83 57.22 373.22 58.00
  Q 372.00 59.57 370.79 61.14
  Q 369.93 62.25 368.22 65.22
  Q 366.95 67.43 365.28 69.09
  Q 363.99 70.39 363.49 72.15
  Q 362.44 75.93 360.21 78.47
  Q 358.44 80.50 357.48 82.08
  Q 354.80 86.48 349.86 89.73
  A 1.56 1.55 -7.6 0 0 349.23 90.55
  Q 348.29 93.42 348.35 96.50
  Q 348.41 99.27 346.13 100.85
  Q 344.43 102.04 343.04 100.99
  Q 342.26 100.39 342.25 101.37
  Q 342.25 104.72 341.56 103.75
  Q 341.36 103.48 341.27 103.81
  L 340.54 106.50
  L 340.21 88.00
  L 340.63 66.47
  Q 340.88 68.13 341.24 67.52
  Q 341.41 67.24 341.54 67.55
  Q 341.80 68.18 342.69 67.69
  Q 347.57 64.96 350.35 60.63
  Q 358.11 48.59 366.90 37.29
  Q 368.05 35.81 370.49 31.76
  Q 371.98 29.29 374.31 26.31
  Q 375.11 25.29 378.30 20.46
  Q 379.45 18.72 382.38 14.68
  Q 387.06 8.19 390.54 0.94
  A 0.29 0.28 10.6 0 0 390.25 0.54
  Q 388.32 0.67 389.81 0.00
  Z"
/>
<path fill="#112038" d="
  M 406.93 0.05
  L 470.06 0.00
  L 473.76 0.25
  A 0.90 0.70 -3.9 0 1 474.53 0.77
  Q 476.75 8.40 472.09 13.18
  Q 471.08 14.22 468.98 15.22
  Q 467.28 16.03 465.63 16.94
  A 1.32 1.32 -4.5 0 0 465.02 17.65
  Q 462.28 24.92 454.92 33.69
  Q 454.61 34.05 454.50 34.51
  Q 453.20 39.61 449.40 42.92
  Q 447.21 44.82 446.39 46.30
  Q 445.19 48.46 444.25 50.75
  Q 443.10 53.55 438.92 57.57
  Q 437.65 58.79 436.35 61.03
  Q 434.54 64.17 431.50 65.75
  Q 428.24 67.45 428.61 70.69
  A 1.48 1.21 62.9 0 1 428.41 71.61
  Q 426.55 74.41 424.26 76.87
  Q 422.19 79.10 420.48 81.74
  Q 418.57 84.71 415.75 88.00
  Q 414.22 89.79 413.10 92.32
  Q 411.82 95.21 410.64 96.69
  Q 409.02 98.71 407.30 100.65
  Q 405.75 102.40 404.23 104.78
  Q 401.59 108.91 398.94 110.94
  Q 395.68 113.43 395.44 117.19
  Q 395.12 122.17 391.03 123.88
  A 1.87 1.61 2.9 0 0 390.27 124.47
  Q 387.02 128.93 385.50 129.75
  Q 383.71 130.72 381.44 133.94
  Q 377.84 139.03 376.11 142.40
  Q 375.21 144.17 373.78 145.67
  Q 372.37 147.16 371.24 148.87
  Q 369.41 151.61 367.80 153.32
  Q 365.46 155.79 364.31 157.81
  Q 362.66 160.71 361.68 162.33
  Q 361.63 162.41 359.91 166.02
  Q 359.04 167.85 357.19 169.69
  Q 355.29 171.57 354.05 175.02
  Q 353.27 177.18 352.19 178.50
  Q 350.92 180.06 349.57 181.57
  Q 348.46 182.82 347.85 181.29
  Q 347.68 180.87 347.42 181.23
  Q 346.27 182.84 344.22 182.38
  A 0.58 0.55 16.6 0 0 343.56 182.71
  Q 343.42 183.08 343.32 183.45
  Q 343.21 183.88 343.31 184.68
  Q 343.49 186.02 342.63 186.91
  A 0.94 0.82 -32.8 0 0 342.39 187.74
  Q 343.58 192.09 341.93 196.25
  L 341.46 186.50
  L 340.96 159.50
  L 340.71 129.75
  L 340.54 106.50
  L 341.27 103.81
  Q 341.36 103.48 341.56 103.75
  Q 342.25 104.72 342.25 101.37
  Q 342.26 100.39 343.04 100.99
  Q 344.43 102.04 346.13 100.85
  Q 348.41 99.27 348.35 96.50
  Q 348.29 93.42 349.23 90.55
  A 1.56 1.55 -7.6 0 1 349.86 89.73
  Q 354.80 86.48 357.48 82.08
  Q 358.44 80.50 360.21 78.47
  Q 362.44 75.93 363.49 72.15
  Q 363.99 70.39 365.28 69.09
  Q 366.95 67.43 368.22 65.22
  Q 369.93 62.25 370.79 61.14
  Q 372.00 59.57 373.22 58.00
  Q 373.83 57.22 375.81 55.01
  Q 378.35 52.17 380.08 48.77
  Q 380.32 48.30 380.00 48.70
  Q 374.51 55.48 368.06 61.35
  Q 367.65 61.72 367.86 61.22
  Q 368.65 59.36 370.94 56.94
  Q 374.14 53.55 377.67 48.00
  Q 379.99 44.35 382.03 41.59
  Q 384.34 38.48 386.52 35.29
  Q 387.67 33.61 388.19 31.70
  Q 388.92 29.09 389.49 28.14
  Q 390.65 26.21 391.81 25.06
  Q 402.57 14.49 406.93 0.05
  Z"
/>
<path fill="#0f172e" d="
  M 470.06 0.00
  L 513.56 0.00
  Q 517.30 0.51 520.00 0.25
  Q 522.16 0.04 523.86 0.78
  Q 524.18 0.92 523.86 1.09
  Q 523.08 1.52 524.26 1.67
  Q 525.08 1.78 525.84 2.20
  A 0.54 0.50 30.2 0 1 526.05 2.91
  L 524.09 6.16
  A 1.45 1.21 -38.1 0 0 523.90 7.05
  Q 524.55 10.93 521.75 14.00
  Q 515.42 20.94 510.45 30.00
  Q 509.85 31.10 510.94 31.10
  Q 511.35 31.10 511.00 31.30
  Q 506.06 34.13 504.67 39.74
  Q 504.46 40.59 503.96 41.07
  Q 503.39 41.62 502.73 42.05
  A 1.25 1.21 80.3 0 0 502.21 42.81
  Q 501.49 46.05 499.06 47.56
  Q 495.61 49.71 493.86 52.60
  Q 492.55 54.77 492.52 54.82
  Q 489.80 58.84 489.31 60.06
  Q 488.46 62.21 485.31 65.31
  Q 483.40 67.20 480.96 72.31
  A 1.95 1.57 -9.5 0 1 480.33 73.02
  Q 478.23 74.42 477.06 76.57
  Q 475.23 79.94 474.79 80.52
  Q 471.98 84.19 469.13 87.83
  Q 468.33 88.86 467.85 88.48
  A 0.37 0.30 34.5 0 0 467.33 88.52
  Q 464.46 94.11 459.94 99.94
  Q 456.43 104.47 454.12 110.47
  A 1.86 1.83 -9.0 0 1 453.55 111.24
  Q 449.75 114.23 447.20 118.29
  Q 446.43 119.52 445.08 121.07
  Q 443.90 122.41 443.09 124.00
  Q 441.71 126.71 440.64 127.97
  Q 438.84 130.09 437.15 132.29
  Q 436.74 132.82 434.96 136.09
  Q 433.88 138.07 432.00 139.50
  Q 431.15 140.15 429.81 143.41
  Q 428.93 145.56 427.71 147.34
  Q 424.54 151.97 421.92 156.95
  Q 421.09 158.53 419.39 159.96
  Q 415.79 162.99 413.19 168.19
  Q 411.36 171.85 407.64 175.75
  Q 405.77 177.72 403.84 180.59
  Q 401.75 183.70 398.94 186.23
  A 0.49 0.42 48.5 0 0 398.95 186.88
  Q 399.38 187.36 398.74 187.82
  Q 398.27 188.15 398.09 188.52
  Q 395.18 194.38 391.75 198.50
  Q 389.75 200.90 388.28 203.07
  Q 386.77 205.28 384.80 207.60
  Q 381.55 211.40 379.59 216.02
  Q 379.57 216.07 378.62 219.05
  Q 377.57 222.35 374.50 225.50
  Q 370.08 230.03 361.36 242.59
  Q 358.80 246.28 357.12 248.42
  Q 353.54 253.00 352.31 253.81
  Q 348.03 256.64 344.77 260.54
  Q 343.24 262.38 342.77 264.93
  Q 341.55 271.66 341.29 278.50
  L 340.79 255.25
  Q 340.44 238.99 341.21 222.75
  L 341.96 208.50
  L 341.93 196.25
  Q 343.58 192.09 342.39 187.74
  A 0.94 0.82 -32.8 0 1 342.63 186.91
  Q 343.49 186.02 343.31 184.68
  Q 343.21 183.88 343.32 183.45
  Q 343.42 183.08 343.56 182.71
  A 0.58 0.55 16.6 0 1 344.22 182.38
  Q 346.27 182.84 347.42 181.23
  Q 347.68 180.87 347.85 181.29
  Q 348.46 182.82 349.57 181.57
  Q 350.92 180.06 352.19 178.50
  Q 353.27 177.18 354.05 175.02
  Q 355.29 171.57 357.19 169.69
  Q 359.04 167.85 359.91 166.02
  Q 361.63 162.41 361.68 162.33
  Q 362.66 160.71 364.31 157.81
  Q 365.46 155.79 367.80 153.32
  Q 369.41 151.61 371.24 148.87
  Q 372.37 147.16 373.78 145.67
  Q 375.21 144.17 376.11 142.40
  Q 377.84 139.03 381.44 133.94
  Q 383.71 130.72 385.50 129.75
  Q 387.02 128.93 390.27 124.47
  A 1.87 1.61 2.9 0 1 391.03 123.88
  Q 395.12 122.17 395.44 117.19
  Q 395.68 113.43 398.94 110.94
  Q 401.59 108.91 404.23 104.78
  Q 405.75 102.40 407.30 100.65
  Q 409.02 98.71 410.64 96.69
  Q 411.82 95.21 413.10 92.32
  Q 414.22 89.79 415.75 88.00
  Q 418.57 84.71 420.48 81.74
  Q 422.19 79.10 424.26 76.87
  Q 426.55 74.41 428.41 71.61
  A 1.48 1.21 62.9 0 0 428.61 70.69
  Q 428.24 67.45 431.50 65.75
  Q 434.54 64.17 436.35 61.03
  Q 437.65 58.79 438.92 57.57
  Q 443.10 53.55 444.25 50.75
  Q 445.19 48.46 446.39 46.30
  Q 447.21 44.82 449.40 42.92
  Q 453.20 39.61 454.50 34.51
  Q 454.61 34.05 454.92 33.69
  Q 462.28 24.92 465.02 17.65
  A 1.32 1.32 -4.5 0 1 465.63 16.94
  Q 467.28 16.03 468.98 15.22
  Q 471.08 14.22 472.09 13.18
  Q 476.75 8.40 474.53 0.77
  A 0.90 0.70 -3.9 0 0 473.76 0.25
  L 470.06 0.00
  Z"
/>
<path fill="#0d0e26" d="
  M 513.56 0.00
  L 555.81 0.00
  Q 558.05 1.34 556.25 3.50
  Q 555.75 4.10 555.13 6.30
  Q 555.02 6.67 554.00 9.05
  Q 553.24 10.80 553.78 12.72
  Q 553.93 13.23 553.96 12.68
  Q 554.08 10.07 554.64 12.30
  Q 554.78 12.86 554.97 12.35
  L 555.22 11.71
  A 0.23 0.23 -60.3 0 1 555.58 11.61
  Q 556.02 11.99 556.06 11.06
  Q 556.12 9.90 556.52 10.52
  A 0.41 0.36 -26.2 0 0 556.99 10.65
  L 559.56 9.69
  Q 562.57 8.56 562.75 7.50
  Q 563.04 5.76 563.46 7.28
  A 0.51 0.47 78.1 0 0 563.98 7.65
  Q 566.20 7.41 568.03 6.03
  Q 570.29 4.33 569.84 7.25
  A 1.89 1.41 -27.0 0 1 569.41 8.12
  Q 568.21 9.45 567.51 11.05
  Q 566.61 13.11 565.91 14.08
  Q 563.21 17.84 560.07 23.30
  A 2.52 2.50 8.6 0 1 558.44 24.49
  Q 557.69 24.66 557.69 25.50
  A 1.71 0.90 75.2 0 1 557.48 26.41
  Q 555.65 29.22 553.70 31.95
  Q 552.78 33.24 551.55 35.65
  Q 550.57 37.58 549.24 39.30
  Q 548.98 39.64 548.48 39.88
  Q 546.58 40.82 546.50 43.00
  A 0.76 0.75 80.4 0 1 546.03 43.67
  Q 542.33 45.15 541.67 49.78
  Q 541.44 51.43 540.03 52.32
  Q 538.92 53.02 538.61 54.01
  A 1.68 1.06 -89.0 0 1 538.10 54.79
  Q 535.48 56.77 533.99 59.74
  Q 532.50 62.71 530.94 64.19
  Q 528.46 66.54 528.00 69.44
  A 1.72 1.15 81.2 0 1 527.60 70.30
  L 520.37 77.42
  Q 520.02 77.76 519.83 78.22
  Q 519.31 79.42 518.00 81.00
  Q 515.28 84.28 514.50 89.25
  Q 514.06 92.04 510.71 93.55
  A 1.51 1.01 -8.6 0 0 510.01 94.19
  L 508.66 97.28
  Q 508.43 97.80 508.10 98.05
  Q 504.59 100.67 503.94 101.94
  Q 501.21 107.22 497.36 111.72
  Q 496.24 113.03 495.39 115.21
  Q 494.56 117.34 493.08 119.12
  A 1.78 1.31 4.7 0 1 492.27 119.62
  Q 490.21 120.21 489.30 122.16
  Q 488.85 123.13 488.31 124.07
  Q 488.07 124.48 487.44 126.04
  Q 486.82 127.55 485.37 128.44
  A 1.58 1.31 -9.1 0 0 484.76 129.14
  Q 483.75 131.62 482.17 133.73
  Q 481.58 134.51 480.49 136.34
  Q 479.67 137.71 478.46 138.73
  Q 475.92 140.88 475.39 141.65
  Q 473.52 144.38 472.47 147.58
  A 1.74 1.06 -19.1 0 1 471.87 148.31
  Q 471.06 148.90 470.69 150.19
  Q 470.47 150.94 469.55 151.21
  A 1.03 0.87 -1.5 0 0 468.90 151.79
  Q 467.85 154.78 466.19 155.94
  Q 464.77 156.92 464.15 157.99
  Q 463.13 159.76 463.06 159.84
  Q 461.40 161.95 460.12 164.30
  Q 458.45 167.34 457.43 168.87
  Q 455.08 172.35 453.03 176.01
  Q 452.34 177.25 451.18 178.00
  Q 450.77 178.26 450.51 178.69
  L 446.09 185.91
  A 1.28 1.22 -35.5 0 0 445.92 186.80
  Q 446.56 190.19 443.51 191.62
  A 1.34 1.20 -3.9 0 0 442.87 192.28
  Q 442.02 194.33 441.19 196.40
  Q 440.74 197.53 439.89 198.33
  Q 439.02 199.14 438.13 199.92
  A 1.77 1.35 83.6 0 0 437.64 200.74
  Q 437.03 202.92 434.81 203.06
  A 0.79 0.59 -87.7 0 0 434.25 203.75
  Q 434.07 205.33 433.31 206.62
  Q 433.02 207.13 431.22 208.65
  Q 429.20 210.35 428.96 213.20
  A 1.51 1.05 -29.5 0 1 428.57 214.01
  L 423.55 219.36
  A 1.69 0.65 -88.4 0 0 423.18 220.25
  Q 422.80 222.18 420.92 222.71
  A 1.10 1.05 4.5 0 0 420.23 223.27
  Q 419.41 224.93 417.19 227.54
  Q 416.82 227.98 416.52 228.47
  Q 413.60 233.30 409.21 236.76
  A 1.54 1.50 80.0 0 0 408.68 237.54
  Q 407.93 240.06 406.24 241.96
  Q 404.17 244.27 403.70 244.92
  Q 402.54 246.51 401.22 247.97
  Q 400.51 248.76 400.24 249.76
  Q 399.97 250.77 399.65 251.78
  A 1.57 1.28 -13.3 0 1 399.08 252.52
  Q 397.47 253.65 396.63 255.48
  A 0.94 0.82 6.3 0 1 395.93 255.97
  Q 394.64 256.15 394.05 257.18
  Q 393.05 258.95 393.02 259.00
  Q 391.62 260.81 390.85 262.97
  A 1.07 0.94 -1.2 0 1 390.20 263.57
  Q 388.80 264.02 388.31 265.06
  Q 386.86 268.20 385.75 269.50
  Q 384.79 270.62 384.08 271.89
  Q 383.32 273.25 382.37 274.17
  Q 378.45 277.99 376.34 283.01
  Q 375.32 285.42 374.00 287.11
  Q 372.53 289.01 371.18 290.99
  Q 371.10 291.10 369.65 292.86
  Q 368.75 293.94 368.41 295.32
  A 1.52 1.26 -16.3 0 1 367.89 296.09
  Q 366.97 296.81 366.50 298.25
  Q 366.14 299.35 365.06 299.93
  Q 363.70 300.65 363.33 301.10
  Q 361.98 302.72 361.38 304.76
  A 1.49 1.41 81.1 0 1 360.84 305.54
  Q 356.90 308.44 354.29 312.62
  Q 353.16 314.43 351.69 315.93
  A 1.27 0.41 -7.3 0 1 351.01 316.25
  L 348.51 316.91
  A 0.31 0.27 -13.4 0 1 348.14 316.71
  Q 347.83 315.29 347.71 316.68
  A 0.89 0.61 77.2 0 1 347.53 317.13
  L 345.72 319.03
  Q 345.48 319.28 345.36 319.43
  Q 344.55 320.51 343.67 321.76
  Q 343.51 321.99 343.45 322.29
  Q 343.25 323.34 342.94 322.67
  Q 342.77 322.29 342.73 322.68
  L 342.04 328.75
  L 341.54 311.25
  L 341.29 278.50
  Q 341.55 271.66 342.77 264.93
  Q 343.24 262.38 344.77 260.54
  Q 348.03 256.64 352.31 253.81
  Q 353.54 253.00 357.12 248.42
  Q 358.80 246.28 361.36 242.59
  Q 370.08 230.03 374.50 225.50
  Q 377.57 222.35 378.62 219.05
  Q 379.57 216.07 379.59 216.02
  Q 381.55 211.40 384.80 207.60
  Q 386.77 205.28 388.28 203.07
  Q 389.75 200.90 391.75 198.50
  Q 395.18 194.38 398.09 188.52
  Q 398.27 188.15 398.74 187.82
  Q 399.38 187.36 398.95 186.88
  A 0.49 0.42 48.5 0 1 398.94 186.23
  Q 401.75 183.70 403.84 180.59
  Q 405.77 177.72 407.64 175.75
  Q 411.36 171.85 413.19 168.19
  Q 415.79 162.99 419.39 159.96
  Q 421.09 158.53 421.92 156.95
  Q 424.54 151.97 427.71 147.34
  Q 428.93 145.56 429.81 143.41
  Q 431.15 140.15 432.00 139.50
  Q 433.88 138.07 434.96 136.09
  Q 436.74 132.82 437.15 132.29
  Q 438.84 130.09 440.64 127.97
  Q 441.71 126.71 443.09 124.00
  Q 443.90 122.41 445.08 121.07
  Q 446.43 119.52 447.20 118.29
  Q 449.75 114.23 453.55 111.24
  A 1.86 1.83 -9.0 0 0 454.12 110.47
  Q 456.43 104.47 459.94 99.94
  Q 464.46 94.11 467.33 88.52
  A 0.37 0.30 34.5 0 1 467.85 88.48
  Q 468.33 88.86 469.13 87.83
  Q 471.98 84.19 474.79 80.52
  Q 475.23 79.94 477.06 76.57
  Q 478.23 74.42 480.33 73.02
  A 1.95 1.57 -9.5 0 0 480.96 72.31
  Q 483.40 67.20 485.31 65.31
  Q 488.46 62.21 489.31 60.06
  Q 489.80 58.84 492.52 54.82
  Q 492.55 54.77 493.86 52.60
  Q 495.61 49.71 499.06 47.56
  Q 501.49 46.05 502.21 42.81
  A 1.25 1.21 80.3 0 1 502.73 42.05
  Q 503.39 41.62 503.96 41.07
  Q 504.46 40.59 504.67 39.74
  Q 506.06 34.13 511.00 31.30
  Q 511.35 31.10 510.94 31.10
  Q 509.85 31.10 510.45 30.00
  Q 515.42 20.94 521.75 14.00
  Q 524.55 10.93 523.90 7.05
  A 1.45 1.21 -38.1 0 1 524.09 6.16
  L 526.05 2.91
  A 0.54 0.50 30.2 0 0 525.84 2.20
  Q 525.08 1.78 524.26 1.67
  Q 523.08 1.52 523.86 1.09
  Q 524.18 0.92 523.86 0.78
  Q 522.16 0.04 520.00 0.25
  Q 517.30 0.51 513.56 0.00
  Z"
/>
<path fill="#0c081f" d="
  M 555.81 0.00
  L 720.00 0.00
  L 720.00 405.00
  L 340.94 405.00
  Q 343.21 405.23 343.19 403.56
  Q 342.93 385.46 342.96 380.75
  Q 343.35 354.73 342.04 328.75
  L 342.73 322.68
  Q 342.77 322.29 342.94 322.67
  Q 343.25 323.34 343.45 322.29
  Q 343.51 321.99 343.67 321.76
  Q 344.55 320.51 345.36 319.43
  Q 345.48 319.28 345.72 319.03
  L 347.53 317.13
  A 0.89 0.61 77.2 0 0 347.71 316.68
  Q 347.83 315.29 348.14 316.71
  A 0.31 0.27 -13.4 0 0 348.51 316.91
  L 351.01 316.25
  A 1.27 0.41 -7.3 0 0 351.69 315.93
  Q 353.16 314.43 354.29 312.62
  Q 356.90 308.44 360.84 305.54
  A 1.49 1.41 81.1 0 0 361.38 304.76
  Q 361.98 302.72 363.33 301.10
  Q 363.70 300.65 365.06 299.93
  Q 366.14 299.35 366.50 298.25
  Q 366.97 296.81 367.89 296.09
  A 1.52 1.26 -16.3 0 0 368.41 295.32
  Q 368.75 293.94 369.65 292.86
  Q 371.10 291.10 371.18 290.99
  Q 372.53 289.01 374.00 287.11
  Q 375.32 285.42 376.34 283.01
  Q 378.45 277.99 382.37 274.17
  Q 383.32 273.25 384.08 271.89
  Q 384.79 270.62 385.75 269.50
  Q 386.86 268.20 388.31 265.06
  Q 388.80 264.02 390.20 263.57
  A 1.07 0.94 -1.2 0 0 390.85 262.97
  Q 391.62 260.81 393.02 259.00
  Q 393.05 258.95 394.05 257.18
  Q 394.64 256.15 395.93 255.97
  A 0.94 0.82 6.3 0 0 396.63 255.48
  Q 397.47 253.65 399.08 252.52
  A 1.57 1.28 -13.3 0 0 399.65 251.78
  Q 399.97 250.77 400.24 249.76
  Q 400.51 248.76 401.22 247.97
  Q 402.54 246.51 403.70 244.92
  Q 404.17 244.27 406.24 241.96
  Q 407.93 240.06 408.68 237.54
  A 1.54 1.50 80.0 0 1 409.21 236.76
  Q 413.60 233.30 416.52 228.47
  Q 416.82 227.98 417.19 227.54
  Q 419.41 224.93 420.23 223.27
  A 1.10 1.05 4.5 0 1 420.92 222.71
  Q 422.80 222.18 423.18 220.25
  A 1.69 0.65 -88.4 0 1 423.55 219.36
  L 428.57 214.01
  A 1.51 1.05 -29.5 0 0 428.96 213.20
  Q 429.20 210.35 431.22 208.65
  Q 433.02 207.13 433.31 206.62
  Q 434.07 205.33 434.25 203.75
  A 0.79 0.59 -87.7 0 1 434.81 203.06
  Q 437.03 202.92 437.64 200.74
  A 1.77 1.35 83.6 0 1 438.13 199.92
  Q 439.02 199.14 439.89 198.33
  Q 440.74 197.53 441.19 196.40
  Q 442.02 194.33 442.87 192.28
  A 1.34 1.20 -3.9 0 1 443.51 191.62
  Q 446.56 190.19 445.92 186.80
  A 1.28 1.22 -35.5 0 1 446.09 185.91
  L 450.51 178.69
  Q 450.77 178.26 451.18 178.00
  Q 452.34 177.25 453.03 176.01
  Q 455.08 172.35 457.43 168.87
  Q 458.45 167.34 460.12 164.30
  Q 461.40 161.95 463.06 159.84
  Q 463.13 159.76 464.15 157.99
  Q 464.77 156.92 466.19 155.94
  Q 467.85 154.78 468.90 151.79
  A 1.03 0.87 -1.5 0 1 469.55 151.21
  Q 470.47 150.94 470.69 150.19
  Q 471.06 148.90 471.87 148.31
  A 1.74 1.06 -19.1 0 0 472.47 147.58
  Q 473.52 144.38 475.39 141.65
  Q 475.92 140.88 478.46 138.73
  Q 479.67 137.71 480.49 136.34
  Q 481.58 134.51 482.17 133.73
  Q 483.75 131.62 484.76 129.14
  A 1.58 1.31 -9.1 0 1 485.37 128.44
  Q 486.82 127.55 487.44 126.04
  Q 488.07 124.48 488.31 124.07
  Q 488.85 123.13 489.30 122.16
  Q 490.21 120.21 492.27 119.62
  A 1.78 1.31 4.7 0 0 493.08 119.12
  Q 494.56 117.34 495.39 115.21
  Q 496.24 113.03 497.36 111.72
  Q 501.21 107.22 503.94 101.94
  Q 504.59 100.67 508.10 98.05
  Q 508.43 97.80 508.66 97.28
  L 510.01 94.19
  A 1.51 1.01 -8.6 0 1 510.71 93.55
  Q 514.06 92.04 514.50 89.25
  Q 515.28 84.28 518.00 81.00
  Q 519.31 79.42 519.83 78.22
  Q 520.02 77.76 520.37 77.42
  L 527.60 70.30
  A 1.72 1.15 81.2 0 0 528.00 69.44
  Q 528.46 66.54 530.94 64.19
  Q 532.50 62.71 533.99 59.74
  Q 535.48 56.77 538.10 54.79
  A 1.68 1.06 -89.0 0 0 538.61 54.01
  Q 538.92 53.02 540.03 52.32
  Q 541.44 51.43 541.67 49.78
  Q 542.33 45.15 546.03 43.67
  A 0.76 0.75 80.4 0 0 546.50 43.00
  Q 546.58 40.82 548.48 39.88
  Q 548.98 39.64 549.24 39.30
  Q 550.57 37.58 551.55 35.65
  Q 552.78 33.24 553.70 31.95
  Q 555.65 29.22 557.48 26.41
  A 1.71 0.90 75.2 0 0 557.69 25.50
  Q 557.69 24.66 558.44 24.49
  A 2.52 2.50 8.6 0 0 560.07 23.30
  Q 563.21 17.84 565.91 14.08
  Q 566.61 13.11 567.51 11.05
  Q 568.21 9.45 569.41 8.12
  A 1.89 1.41 -27.0 0 0 569.84 7.25
  Q 570.29 4.33 568.03 6.03
  Q 566.20 7.41 563.98 7.65
  A 0.51 0.47 78.1 0 1 563.46 7.28
  Q 563.04 5.76 562.75 7.50
  Q 562.57 8.56 559.56 9.69
  L 556.99 10.65
  A 0.41 0.36 -26.2 0 1 556.52 10.52
  Q 556.12 9.90 556.06 11.06
  Q 556.02 11.99 555.58 11.61
  A 0.23 0.23 -60.3 0 0 555.22 11.71
  L 554.97 12.35
  Q 554.78 12.86 554.64 12.30
  Q 554.08 10.07 553.96 12.68
  Q 553.93 13.23 553.78 12.72
  Q 553.24 10.80 554.00 9.05
  Q 555.02 6.67 555.13 6.30
  Q 555.75 4.10 556.25 3.50
  Q 558.05 1.34 555.81 0.00
  Z"
/>
<path fill="#2c2f4a" d="
  M 339.00 2.46
  Q 340.12 8.43 340.22 14.50
  Q 340.49 31.62 340.68 48.77
  L 340.63 66.47
  L 340.21 88.00
  L 339.29 88.25
  Q 338.98 62.66 338.69 37.06
  Q 338.44 14.95 339.00 2.46
  Z"
/>
<path fill="#5d6c84" d="
  M 340.21 88.00
  L 340.54 106.50
  L 340.71 129.75
  Q 339.88 129.04 338.79 129.00
  L 338.71 122.00
  L 339.29 88.25
  L 340.21 88.00
  Z"
/>
<path fill="#0c0c24" d="
  M 338.71 122.00
  L 338.79 129.00
  L 338.79 159.25
  L 338.96 180.50
  Q 338.59 181.84 338.69 183.25
  Q 338.97 187.41 337.71 184.73
  Q 337.50 184.27 337.55 183.73
  Q 337.83 180.90 337.92 178.07
  Q 337.94 177.63 337.86 178.06
  Q 337.47 180.34 336.66 177.98
  Q 336.52 177.58 336.29 177.96
  Q 335.70 178.95 334.06 179.31
  Q 331.23 179.93 330.30 183.51
  Q 329.39 186.99 326.47 189.04
  A 1.22 1.18 78.3 0 0 325.98 189.81
  Q 325.51 192.49 323.97 194.60
  Q 321.41 198.09 321.37 198.14
  Q 317.04 205.50 313.06 213.06
  Q 311.30 216.42 307.76 219.80
  Q 305.68 221.78 304.63 223.51
  Q 303.13 225.98 302.31 227.81
  Q 301.20 230.29 299.62 232.10
  Q 296.63 235.49 296.38 235.85
  Q 289.64 245.37 282.23 254.36
  Q 281.83 254.84 279.77 258.01
  Q 278.55 259.89 276.71 261.27
  A 1.56 1.40 81.7 0 0 276.19 262.05
  Q 275.77 263.46 274.87 264.56
  Q 273.44 266.27 273.03 267.17
  Q 271.45 270.60 270.00 272.50
  Q 266.37 277.27 263.09 282.27
  Q 262.15 283.71 259.38 286.79
  Q 257.24 289.16 255.96 292.13
  Q 255.19 293.90 253.95 295.53
  Q 252.74 297.14 251.89 298.98
  A 1.33 1.22 -1.0 0 1 251.22 299.62
  Q 247.92 301.00 246.89 304.58
  Q 246.11 307.28 242.94 310.44
  Q 241.45 311.92 237.46 318.04
  Q 237.44 318.07 235.63 321.80
  Q 234.67 323.78 232.74 325.05
  A 1.52 1.37 85.7 0 0 232.17 325.79
  Q 231.54 327.57 229.34 329.05
  A 3.56 3.52 85.5 0 0 228.06 330.57
  Q 227.29 332.31 225.74 333.31
  A 1.53 1.43 -7.5 0 0 225.15 334.03
  Q 224.69 335.24 223.88 336.16
  Q 222.69 337.51 222.38 338.06
  Q 221.18 340.14 220.11 342.29
  A 0.43 0.36 10.2 0 1 219.76 342.49
  L 219.53 342.49
  A 0.55 0.47 -89.3 0 0 219.07 343.02
  Q 218.99 344.92 217.23 345.60
  A 1.14 1.05 -1.6 0 0 216.59 346.22
  Q 215.95 347.85 214.00 350.75
  Q 213.66 351.26 212.63 353.73
  Q 212.05 355.10 210.83 356.39
  Q 208.51 358.85 206.00 363.00
  Q 205.21 364.31 200.91 369.95
  Q 200.44 370.56 200.27 371.32
  Q 200.11 372.07 199.93 372.82
  A 0.93 0.77 -5.1 0 1 199.32 373.42
  Q 198.31 373.75 197.86 374.83
  Q 196.73 377.57 194.79 379.65
  Q 192.21 382.43 191.13 383.73
  Q 189.19 386.09 186.27 388.39
  Q 184.84 389.51 184.46 391.29
  Q 184.30 392.03 183.49 392.51
  Q 182.65 392.99 182.33 393.39
  Q 180.19 396.08 178.94 399.27
  Q 178.40 400.66 177.79 401.59
  Q 177.07 402.68 176.34 403.77
  A 0.32 0.31 -68.8 0 0 176.55 404.26
  Q 182.24 405.03 188.00 404.75
  Q 191.86 404.56 195.69 405.00
  L 151.69 405.00
  Q 147.92 404.78 150.17 400.54
  A 1.28 1.27 -61.8 0 0 149.65 398.81
  Q 148.57 398.23 150.03 397.66
  A 1.81 1.29 -74.8 0 0 150.75 397.07
  L 156.86 388.56
  Q 157.20 388.09 157.29 387.69
  Q 157.84 385.29 159.55 383.58
  Q 161.31 381.82 161.33 381.80
  Q 165.76 376.57 168.49 370.27
  Q 168.52 370.20 168.56 370.14
  Q 171.09 366.36 172.19 364.07
  Q 172.80 362.80 173.77 361.74
  Q 174.75 360.67 175.50 359.42
  Q 175.71 359.06 175.96 358.73
  Q 178.71 355.19 179.25 353.25
  Q 180.08 350.30 182.76 349.61
  A 1.41 0.90 -0.7 0 0 183.54 349.10
  L 187.33 343.00
  Q 187.54 342.67 188.03 342.39
  Q 188.62 342.06 188.54 341.25
  Q 188.51 340.94 188.56 340.76
  Q 188.75 340.14 189.02 340.42
  Q 189.20 340.62 189.25 340.39
  Q 189.57 338.89 190.48 337.75
  Q 191.76 336.17 192.19 335.50
  Q 193.64 333.25 196.06 331.97
  Q 196.51 331.73 196.78 331.33
  Q 203.70 320.81 205.31 317.31
  Q 207.05 313.53 208.82 311.11
  Q 211.44 307.52 211.56 307.34
  Q 213.13 305.07 215.12 303.12
  Q 216.53 301.74 218.11 301.55
  A 1.12 1.11 -74.3 0 0 218.83 301.14
  Q 220.71 298.76 220.94 296.31
  Q 221.39 297.03 221.51 295.62
  A 2.36 2.32 -19.6 0 1 222.23 294.14
  Q 226.86 289.77 226.66 286.43
  Q 226.63 285.89 226.92 285.85
  A 0.80 0.36 -2.2 0 0 227.49 285.57
  Q 228.37 283.78 229.81 282.46
  Q 232.26 280.22 232.56 279.87
  Q 236.33 275.41 244.06 265.44
  Q 247.95 260.43 249.00 255.50
  Q 249.40 253.61 254.54 245.73
  A 0.57 0.40 27.7 0 1 255.18 245.65
  Q 255.57 245.84 255.77 245.03
  Q 255.88 244.56 256.00 244.91
  L 256.04 245.04
  Q 256.08 245.17 256.16 245.07
  Q 258.22 242.62 258.69 239.49
  A 1.17 0.83 -18.4 0 1 259.20 238.79
  Q 259.84 238.39 259.82 237.55
  A 0.45 0.45 -18.1 0 1 260.02 237.16
  Q 261.38 236.29 261.82 235.41
  Q 262.98 233.15 265.31 232.31
  A 1.21 0.40 -16.9 0 0 266.19 231.69
  Q 266.37 230.19 267.51 229.84
  A 0.65 0.57 -9.8 0 0 267.98 229.26
  Q 267.98 227.71 268.62 228.82
  Q 268.81 229.15 268.89 228.78
  Q 269.22 227.32 270.00 226.75
  Q 272.91 224.62 273.56 223.81
  Q 275.34 221.61 277.40 219.66
  Q 279.07 218.07 280.44 215.82
  Q 282.07 213.12 284.31 210.89
  Q 286.60 208.61 287.74 207.18
  Q 288.81 205.85 289.93 204.57
  Q 291.07 203.27 291.95 201.87
  Q 295.64 196.03 298.25 193.50
  Q 300.17 191.64 300.46 189.49
  A 1.47 1.37 72.6 0 1 300.86 188.65
  Q 303.08 186.37 303.67 183.24
  Q 303.72 182.95 304.10 182.40
  L 305.88 179.81
  Q 306.99 178.18 307.54 177.68
  Q 310.03 175.37 311.26 172.66
  Q 313.00 168.81 313.43 168.25
  Q 315.17 166.03 318.25 163.42
  A 4.99 4.94 79.2 0 0 319.77 161.16
  Q 320.27 159.64 321.98 157.60
  Q 323.27 156.08 324.19 154.31
  Q 324.22 154.26 325.26 150.93
  Q 326.07 148.35 328.76 147.40
  A 1.11 1.09 1.6 0 0 329.43 146.78
  Q 330.59 144.00 333.26 142.53
  Q 334.70 141.74 335.94 140.65
  A 0.42 0.36 53.6 0 1 336.51 140.78
  L 336.96 141.45
  Q 337.31 142.00 337.36 141.31
  L 338.71 122.00
  Z"
/>
<path fill="#5898bb" d="
  M 338.79 129.00
  Q 339.88 129.04 340.71 129.75
  L 340.96 159.50
  Q 340.20 158.33 338.79 159.25
  L 338.79 129.00
  Z"
/>
<path fill="#4ebdec" d="
  M 340.96 159.50
  L 341.46 186.50
  L 339.04 186.75
  L 338.96 180.50
  L 338.79 159.25
  Q 340.20 158.33 340.96 159.50
  Z"
/>
<path fill="#0d1229" d="
  M 338.96 180.50
  L 339.04 186.75
  L 338.71 199.75
  Q 338.38 199.02 337.69 199.19
  Q 337.27 199.28 336.25 199.25
  Q 333.91 199.17 332.44 200.55
  Q 331.32 201.61 330.92 203.91
  Q 330.08 208.84 331.27 213.84
  A 1.73 1.73 49.9 0 1 331.18 214.91
  Q 329.61 218.72 327.89 221.90
  Q 326.52 224.44 325.80 227.29
  Q 323.62 235.87 318.71 243.26
  Q 317.52 245.05 316.46 246.84
  Q 315.37 248.68 314.15 250.42
  Q 313.49 251.36 311.34 253.03
  Q 309.15 254.72 308.33 257.57
  Q 307.45 260.65 305.42 262.97
  Q 304.04 264.55 303.08 266.33
  Q 302.08 268.19 300.61 269.69
  Q 298.49 271.84 297.84 272.73
  Q 293.68 278.43 292.94 279.69
  Q 288.35 287.48 285.75 290.50
  Q 284.33 292.15 281.50 296.72
  Q 280.96 297.58 278.97 299.83
  Q 277.70 301.27 276.75 303.25
  Q 276.08 304.66 274.79 306.59
  Q 274.47 307.08 272.16 309.37
  Q 270.41 311.12 269.44 314.19
  Q 268.93 315.79 266.71 316.80
  A 1.61 1.41 -1.3 0 0 266.01 317.44
  Q 261.54 325.66 255.57 332.84
  Q 253.80 334.97 251.85 337.97
  Q 250.12 340.62 248.06 343.06
  Q 247.59 343.62 247.40 344.33
  Q 247.26 344.86 246.97 345.19
  Q 243.97 348.56 242.64 352.89
  Q 241.89 355.32 239.75 357.50
  Q 237.52 359.77 230.76 367.76
  Q 228.11 370.88 226.23 374.51
  Q 225.99 374.98 225.26 377.62
  Q 224.73 379.59 223.01 380.28
  Q 220.91 381.13 219.99 383.20
  Q 218.06 387.55 215.31 388.34
  Q 213.42 388.88 213.55 390.85
  Q 213.80 394.86 210.74 396.81
  A 1.55 1.52 -6.1 0 0 210.14 397.54
  Q 209.46 399.31 208.12 400.65
  A 1.35 0.70 -34.9 0 0 207.68 401.49
  L 207.72 403.70
  A 0.70 0.47 5.6 0 0 208.31 404.19
  L 213.44 405.00
  L 195.69 405.00
  Q 191.86 404.56 188.00 404.75
  Q 182.24 405.03 176.55 404.26
  A 0.32 0.31 -68.8 0 1 176.34 403.77
  Q 177.07 402.68 177.79 401.59
  Q 178.40 400.66 178.94 399.27
  Q 180.19 396.08 182.33 393.39
  Q 182.65 392.99 183.49 392.51
  Q 184.30 392.03 184.46 391.29
  Q 184.84 389.51 186.27 388.39
  Q 189.19 386.09 191.13 383.73
  Q 192.21 382.43 194.79 379.65
  Q 196.73 377.57 197.86 374.83
  Q 198.31 373.75 199.32 373.42
  A 0.93 0.77 -5.1 0 0 199.93 372.82
  Q 200.11 372.07 200.27 371.32
  Q 200.44 370.56 200.91 369.95
  Q 205.21 364.31 206.00 363.00
  Q 208.51 358.85 210.83 356.39
  Q 212.05 355.10 212.63 353.73
  Q 213.66 351.26 214.00 350.75
  Q 215.95 347.85 216.59 346.22
  A 1.14 1.05 -1.6 0 1 217.23 345.60
  Q 218.99 344.92 219.07 343.02
  A 0.55 0.47 -89.3 0 1 219.53 342.49
  L 219.76 342.49
  A 0.43 0.36 10.2 0 0 220.11 342.29
  Q 221.18 340.14 222.38 338.06
  Q 222.69 337.51 223.88 336.16
  Q 224.69 335.24 225.15 334.03
  A 1.53 1.43 -7.5 0 1 225.74 333.31
  Q 227.29 332.31 228.06 330.57
  A 3.56 3.52 85.5 0 1 229.34 329.05
  Q 231.54 327.57 232.17 325.79
  A 1.52 1.37 85.7 0 1 232.74 325.05
  Q 234.67 323.78 235.63 321.80
  Q 237.44 318.07 237.46 318.04
  Q 241.45 311.92 242.94 310.44
  Q 246.11 307.28 246.89 304.58
  Q 247.92 301.00 251.22 299.62
  A 1.33 1.22 -1.0 0 0 251.89 298.98
  Q 252.74 297.14 253.95 295.53
  Q 255.19 293.90 255.96 292.13
  Q 257.24 289.16 259.38 286.79
  Q 262.15 283.71 263.09 282.27
  Q 266.37 277.27 270.00 272.50
  Q 271.45 270.60 273.03 267.17
  Q 273.44 266.27 274.87 264.56
  Q 275.77 263.46 276.19 262.05
  A 1.56 1.40 81.7 0 1 276.71 261.27
  Q 278.55 259.89 279.77 258.01
  Q 281.83 254.84 282.23 254.36
  Q 289.64 245.37 296.38 235.85
  Q 296.63 235.49 299.62 232.10
  Q 301.20 230.29 302.31 227.81
  Q 303.13 225.98 304.63 223.51
  Q 305.68 221.78 307.76 219.80
  Q 311.30 216.42 313.06 213.06
  Q 317.04 205.50 321.37 198.14
  Q 321.41 198.09 323.97 194.60
  Q 325.51 192.49 325.98 189.81
  A 1.22 1.18 78.3 0 1 326.47 189.04
  Q 329.39 186.99 330.30 183.51
  Q 331.23 179.93 334.06 179.31
  Q 335.70 178.95 336.29 177.96
  Q 336.52 177.58 336.66 177.98
  Q 337.47 180.34 337.86 178.06
  Q 337.94 177.63 337.92 178.07
  Q 337.83 180.90 337.55 183.73
  Q 337.50 184.27 337.71 184.73
  Q 338.97 187.41 338.69 183.25
  Q 338.59 181.84 338.96 180.50
  Z"
/>
<path fill="#d0edf9" d="
  M 341.46 186.50
  L 341.93 196.25
  L 341.96 208.50
  Q 340.54 210.12 338.79 208.75
  L 338.71 199.75
  L 339.04 186.75
  L 341.46 186.50
  Z"
/>
<path fill="#0f172e" d="
  M 338.71 199.75
  L 338.79 208.75
  L 339.21 218.00
  Q 338.69 238.80 339.00 247.50
  Q 339.03 248.44 338.73 248.82
  A 1.11 0.26 -48.6 0 0 338.33 249.56
  Q 338.44 253.56 338.69 257.56
  Q 338.72 258.18 337.78 260.23
  Q 337.57 260.67 337.44 260.21
  Q 336.36 256.53 333.38 258.93
  A 1.33 0.99 79.6 0 0 332.97 259.76
  Q 332.81 261.17 331.85 262.16
  Q 330.48 263.57 330.45 263.62
  Q 325.01 270.79 320.29 278.45
  Q 319.22 280.20 317.17 282.61
  Q 315.46 284.61 314.11 286.87
  Q 310.86 292.28 309.99 293.43
  Q 306.94 297.46 303.74 301.36
  Q 301.64 303.91 300.00 306.33
  Q 298.25 308.89 296.50 311.46
  Q 296.46 311.52 293.76 315.74
  Q 291.98 318.52 289.80 320.97
  Q 288.38 322.57 287.33 324.50
  Q 286.28 326.42 285.01 328.19
  Q 282.59 331.57 281.40 333.57
  Q 279.11 337.40 276.38 340.90
  Q 272.80 345.51 271.13 348.03
  Q 262.60 360.92 253.03 373.06
  Q 249.20 377.91 245.06 385.56
  Q 244.03 387.48 242.01 389.50
  Q 240.21 391.31 238.98 393.35
  Q 236.19 398.00 232.12 401.67
  A 0.44 0.43 51.6 0 1 231.47 401.58
  Q 229.27 398.46 229.48 403.75
  A 0.63 0.57 4.9 0 0 230.00 404.31
  Q 230.85 404.47 231.44 405.00
  L 213.44 405.00
  L 208.31 404.19
  A 0.70 0.47 5.6 0 1 207.72 403.70
  L 207.68 401.49
  A 1.35 0.70 -34.9 0 1 208.12 400.65
  Q 209.46 399.31 210.14 397.54
  A 1.55 1.52 -6.1 0 1 210.74 396.81
  Q 213.80 394.86 213.55 390.85
  Q 213.42 388.88 215.31 388.34
  Q 218.06 387.55 219.99 383.20
  Q 220.91 381.13 223.01 380.28
  Q 224.73 379.59 225.26 377.62
  Q 225.99 374.98 226.23 374.51
  Q 228.11 370.88 230.76 367.76
  Q 237.52 359.77 239.75 357.50
  Q 241.89 355.32 242.64 352.89
  Q 243.97 348.56 246.97 345.19
  Q 247.26 344.86 247.40 344.33
  Q 247.59 343.62 248.06 343.06
  Q 250.12 340.62 251.85 337.97
  Q 253.80 334.97 255.57 332.84
  Q 261.54 325.66 266.01 317.44
  A 1.61 1.41 -1.3 0 1 266.71 316.80
  Q 268.93 315.79 269.44 314.19
  Q 270.41 311.12 272.16 309.37
  Q 274.47 307.08 274.79 306.59
  Q 276.08 304.66 276.75 303.25
  Q 277.70 301.27 278.97 299.83
  Q 280.96 297.58 281.50 296.72
  Q 284.33 292.15 285.75 290.50
  Q 288.35 287.48 292.94 279.69
  Q 293.68 278.43 297.84 272.73
  Q 298.49 271.84 300.61 269.69
  Q 302.08 268.19 303.08 266.33
  Q 304.04 264.55 305.42 262.97
  Q 307.45 260.65 308.33 257.57
  Q 309.15 254.72 311.34 253.03
  Q 313.49 251.36 314.15 250.42
  Q 315.37 248.68 316.46 246.84
  Q 317.52 245.05 318.71 243.26
  Q 323.62 235.87 325.80 227.29
  Q 326.52 224.44 327.89 221.90
  Q 329.61 218.72 331.18 214.91
  A 1.73 1.73 49.9 0 0 331.27 213.84
  Q 330.08 208.84 330.92 203.91
  Q 331.32 201.61 332.44 200.55
  Q 333.91 199.17 336.25 199.25
  Q 337.27 199.28 337.69 199.19
  Q 338.38 199.02 338.71 199.75
  Z"
/>
<path fill="#9ad6f0" d="
  M 341.96 208.50
  L 341.21 222.75
  Q 340.28 222.97 340.35 223.95
  Q 340.39 224.44 340.05 224.12
  Q 339.55 223.65 339.29 223.00
  L 339.21 218.00
  L 338.79 208.75
  Q 340.54 210.12 341.96 208.50
  Z"
/>
<path fill="#111d35" d="
  M 339.21 218.00
  L 339.29 223.00
  L 339.29 268.00
  L 339.79 312.75
  Q 339.34 325.62 338.75 338.49
  Q 338.71 339.38 338.69 338.15
  Q 338.69 337.91 338.67 338.15
  Q 338.58 339.71 337.96 338.97
  Q 337.58 338.51 337.22 338.36
  Q 332.20 336.31 330.28 340.66
  Q 328.84 343.92 328.76 344.06
  Q 327.87 345.72 327.09 347.43
  Q 325.57 350.77 324.20 352.16
  Q 322.09 354.29 319.28 355.56
  Q 316.89 356.65 314.75 360.00
  Q 311.74 364.71 309.05 369.60
  Q 308.49 370.62 306.91 372.45
  Q 305.60 373.99 305.19 375.69
  Q 304.29 379.43 301.48 381.30
  A 1.29 0.54 -84.8 0 0 301.07 382.07
  Q 300.98 382.46 300.50 382.50
  Q 295.71 386.96 295.12 392.36
  Q 294.89 394.47 294.36 396.54
  Q 293.40 400.22 290.51 400.54
  Q 290.46 400.55 287.53 400.14
  Q 284.33 399.68 283.97 403.19
  A 1.13 0.89 -18.9 0 1 283.49 403.93
  Q 282.67 404.51 284.19 405.00
  L 231.44 405.00
  Q 230.85 404.47 230.00 404.31
  A 0.63 0.57 4.9 0 1 229.48 403.75
  Q 229.27 398.46 231.47 401.58
  A 0.44 0.43 51.6 0 0 232.12 401.67
  Q 236.19 398.00 238.98 393.35
  Q 240.21 391.31 242.01 389.50
  Q 244.03 387.48 245.06 385.56
  Q 249.20 377.91 253.03 373.06
  Q 262.60 360.92 271.13 348.03
  Q 272.80 345.51 276.38 340.90
  Q 279.11 337.40 281.40 333.57
  Q 282.59 331.57 285.01 328.19
  Q 286.28 326.42 287.33 324.50
  Q 288.38 322.57 289.80 320.97
  Q 291.98 318.52 293.76 315.74
  Q 296.46 311.52 296.50 311.46
  Q 298.25 308.89 300.00 306.33
  Q 301.64 303.91 303.74 301.36
  Q 306.94 297.46 309.99 293.43
  Q 310.86 292.28 314.11 286.87
  Q 315.46 284.61 317.17 282.61
  Q 319.22 280.20 320.29 278.45
  Q 325.01 270.79 330.45 263.62
  Q 330.48 263.57 331.85 262.16
  Q 332.81 261.17 332.97 259.76
  A 1.33 0.99 79.6 0 1 333.38 258.93
  Q 336.36 256.53 337.44 260.21
  Q 337.57 260.67 337.78 260.23
  Q 338.72 258.18 338.69 257.56
  Q 338.44 253.56 338.33 249.56
  A 1.11 0.26 -48.6 0 1 338.73 248.82
  Q 339.03 248.44 339.00 247.50
  Q 338.69 238.80 339.21 218.00
  Z"
/>
<path fill="#1079ac" d="
  M 341.21 222.75
  Q 340.44 238.99 340.79 255.25
  Q 340.90 264.96 340.44 267.44
  Q 340.04 269.54 339.29 268.00
  L 339.29 223.00
  Q 339.55 223.65 340.05 224.12
  Q 340.39 224.44 340.35 223.95
  Q 340.28 222.97 341.21 222.75
  Z"
/>
<path fill="#18476c" d="
  M 340.79 255.25
  L 341.29 278.50
  L 341.54 311.25
  Q 341.39 313.04 339.79 312.75
  L 339.29 268.00
  Q 340.04 269.54 340.44 267.44
  Q 340.90 264.96 340.79 255.25
  Z"
/>
<path fill="#11243d" d="
  M 341.54 311.25
  L 342.04 328.75
  Q 343.35 354.73 342.96 380.75
  L 342.25 375.50
  Q 341.91 372.95 340.81 375.06
  Q 335.23 385.87 328.25 395.84
  Q 328.19 395.92 326.80 397.73
  Q 325.10 399.92 325.06 401.81
  Q 325.03 403.39 324.18 404.01
  Q 323.77 404.32 324.20 404.47
  L 325.69 405.00
  L 284.19 405.00
  Q 282.67 404.51 283.49 403.93
  A 1.13 0.89 -18.9 0 0 283.97 403.19
  Q 284.33 399.68 287.53 400.14
  Q 290.46 400.55 290.51 400.54
  Q 293.40 400.22 294.36 396.54
  Q 294.89 394.47 295.12 392.36
  Q 295.71 386.96 300.50 382.50
  Q 300.98 382.46 301.07 382.07
  A 1.29 0.54 -84.8 0 1 301.48 381.30
  Q 304.29 379.43 305.19 375.69
  Q 305.60 373.99 306.91 372.45
  Q 308.49 370.62 309.05 369.60
  Q 311.74 364.71 314.75 360.00
  Q 316.89 356.65 319.28 355.56
  Q 322.09 354.29 324.20 352.16
  Q 325.57 350.77 327.09 347.43
  Q 327.87 345.72 328.76 344.06
  Q 328.84 343.92 330.28 340.66
  Q 332.20 336.31 337.22 338.36
  Q 337.58 338.51 337.96 338.97
  Q 338.58 339.71 338.67 338.15
  Q 338.69 337.91 338.69 338.15
  Q 338.71 339.38 338.75 338.49
  Q 339.34 325.62 339.79 312.75
  Q 341.39 313.04 341.54 311.25
  Z"
/>
<path fill="#102a45" d="
  M 342.96 380.75
  Q 342.93 385.46 343.19 403.56
  Q 343.21 405.23 340.94 405.00
  L 325.69 405.00
  L 324.20 404.47
  Q 323.77 404.32 324.18 404.01
  Q 325.03 403.39 325.06 401.81
  Q 325.10 399.92 326.80 397.73
  Q 328.19 395.92 328.25 395.84
  Q 335.23 385.87 340.81 375.06
  Q 341.91 372.95 342.25 375.50
  L 342.96 380.75
  Z"
/>
</svg>
